<?xml version="1.0" encoding="UTF-8"?>
<svg id="Layer_2" data-name="Layer 2" xmlns="http://www.w3.org/2000/svg" xmlns:xlink="http://www.w3.org/1999/xlink" viewBox="0 0 234.4 234.41">
  <defs>
    <style>
      .cls-1 {
        stroke-miterlimit: 10;
      }

      .cls-1, .cls-2, .cls-3, .cls-4 {
        stroke: #2e3192;
      }

      .cls-1, .cls-2, .cls-4 {
        fill: #fafcfd;
      }

      .cls-1, .cls-4 {
        stroke-width: .48px;
      }

      .cls-5 {
        fill: url(#linear-gradient);
      }

      .cls-5, .cls-6, .cls-7, .cls-8, .cls-9, .cls-10 {
        stroke-width: 0px;
      }

      .cls-6, .cls-3 {
        fill: none;
      }

      .cls-2 {
        stroke-width: .48px;
      }

      .cls-2, .cls-3, .cls-4 {
        stroke-linejoin: round;
      }

      .cls-7 {
        fill: #154a8c;
      }

      .cls-8 {
        fill: #fff;
      }

      .cls-9 {
        fill: #c8d0d6;
      }

      .cls-10 {
        fill: url(#linear-gradient-2);
      }

      .cls-11 {
        clip-path: url(#clippath);
      }

      .cls-3 {
        stroke-width: 1.65px;
      }
    </style>
    <linearGradient id="linear-gradient" x1="-1330.89" y1="-2185.46" x2="-1132.15" y2="-2185.46" gradientTransform="translate(-1150.94 2246.15) rotate(58.9)" gradientUnits="userSpaceOnUse">
      <stop offset="0" stop-color="#f4f3f2"/>
      <stop offset="1" stop-color="#dad8d6"/>
    </linearGradient>
    <linearGradient id="linear-gradient-2" x1="-4122.64" y1="3716.2" x2="-3889" y2="3716.2" gradientTransform="translate(-3084.11 -4310.92) rotate(-83.01)" gradientUnits="userSpaceOnUse">
      <stop offset="0" stop-color="#005591"/>
      <stop offset=".04" stop-color="#16669f"/>
      <stop offset=".09" stop-color="#367fb2"/>
      <stop offset=".16" stop-color="#5194c2"/>
      <stop offset=".23" stop-color="#67a5d0"/>
      <stop offset=".32" stop-color="#78b3da"/>
      <stop offset=".43" stop-color="#84bce1"/>
      <stop offset=".58" stop-color="#8bc1e5"/>
      <stop offset="1" stop-color="#8dc3e7"/>
    </linearGradient>
    <clipPath id="clippath">
      <circle class="cls-6" cx="117.2" cy="117.21" r="116.86"/>
    </clipPath>
  </defs>
  <g id="Layer_1-2" data-name="Layer 1">
    <g>
      <path class="cls-5" d="m168.53,202.29c-47,28.35-108.06,13.23-136.42-33.77C3.76,121.52,18.88,60.47,65.87,32.12c47.01-28.35,108.07-13.23,136.41,33.75,28.36,47.01,13.24,108.07-33.75,136.42Z"/>
      <path class="cls-10" d="m158.84,8.09c60.28,23,90.47,90.5,67.47,150.76-23,60.28-90.49,90.47-150.76,67.48C15.29,203.33-14.92,135.84,8.08,75.56,31.08,15.3,98.57-14.92,158.84,8.09Z"/>
      <g class="cls-11">
        <g>
          <polyline class="cls-9" points="85.46 165.35 86.19 166.09 86.29 167.18 86.11 167.92 85.27 167.09 84.81 166.28 84.81 165.78 85.46 165.35"/>
          <path class="cls-8" d="m86.32,168.67l-1.38-1.39-.52-.9v-.81l1.1-.72,1.05,1.07.13,1.3-.37,1.46Zm-.73-1.83l.31.31h0s-.09-.9-.09-.9l-.41-.41-.21.14v.19l.39.67Z"/>
        </g>
        <polyline class="cls-1" points="54.97 195.54 54.66 195.63 55.31 196.87 55.7 199.25 56.19 201.09 56.51 205.44 57.05 206.84 58.22 207.68 58.3 209.32 58.14 211.34 59 212.84 59.21 213.81 61.92 217.1 63.27 218.53 64.21 220.26 64.46 222 65.82 223.33 68.26 224.93 71.46 227.4 73.52 228.14 75.7 229.73 77.16 230.28 79.16 231.33 80.88 232.85 81.43 232.51 81.97 233.25 82.57 232.75 82.96 231.92 83.87 231.42 85.93 231.78 87.13 232.92 87.72 231.92 88.11 229.78 85.77 225.81 84.96 223.92 82.41 222.19 81.48 219.62 81.12 214.08 81.61 210.75 81.61 208.27 81.32 206.54 80.44 204.94 77.96 201.73 74.61 199.44 72.63 197.37 70.81 197.42 69.72 199.16 68.08 199.35 66.47 199.09 63.01 201.23 62.36 199.66 62.75 197.42 61.21 195.37 59.86 195.04 57.31 194.78 56.12 193.5 54.32 193.5 54.97 195.54"/>
        <g>
          <polyline class="cls-9" points="40.51 155.02 40.69 155.29 40.19 154.88 38.95 156.67 40.25 156.92 40.85 156.76 41.05 155.67 40.51 155.02"/>
          <path class="cls-8" d="m40.26,157.33l-1.97-.39,1.83-2.62.62.51.07-.05.67.79-.03.15,1.08,1.59-1.19-.98-.14.75-.92.25Zm-.65-.92l.63.12.28-.08.13-.67-.37-.33-.66.95Z"/>
        </g>
        <g>
          <polyline class="cls-9" points="38.95 155.38 38.74 155.52 38.45 157.4 38.95 156.67 39.26 155.29 38.95 155.38"/>
          <polygon class="cls-8" points="37.81 159.06 38.38 155.29 38.83 155.01 39.79 154.72 39.27 156.88 37.81 159.06"/>
        </g>
        <g>
          <polyline class="cls-9" points="39.26 148.43 39.15 150.29 39.36 150.81 40.01 150.29 39.26 148.43"/>
          <polygon class="cls-8" points="39.2 151.44 38.76 150.35 38.97 146.69 40.48 150.41 39.2 151.44"/>
        </g>
        <polyline class="cls-4" points="212.24 158.57 212.69 158.26 212.84 158.5 212.97 160.33 213.23 160.83 212.79 161.54 212.84 162.61 213.49 164.61 213.13 165.54 211.78 166.35 210.89 167.59 209.59 168.66 208.14 169.15 207.04 169.85 206.5 171.79 204.78 173.53 201.53 176.06 199.73 177.75 198.38 178.77 197.13 179.03 196.22 179.98 195.24 180.72 194.14 180.58 194.58 178.81 195.68 177.08 196.77 176.1 198.93 174.6 199.79 174.46 204.52 169.92 205.77 168.51 206.6 168.09 207.49 166.78 208.68 165.94 209.78 165.54 210.89 163.71 210.79 162.28 211.16 162.97 211.7 162.57 211.49 162.06 210.89 161.54 211.23 161.14 211.7 160.09 211.88 158.9 212.24 158.57"/>
        <polyline class="cls-9" points="215.73 154.09 216.75 154.64 217.19 155.09 217.14 155.52 216.75 155.83 216.28 155.52 215.73 154.43 215.73 154.09"/>
        <polyline class="cls-9" points="216.05 151.31 215.83 151.41 217.14 152.31 218.2 152.31 218.75 152.95 218.85 153.29 217.68 153.4 216.82 152.85 216.05 151.31"/>
        <polyline class="cls-4" points="219.84 142.7 219.64 142.29 220.18 142.24 224.34 142.24 225.15 142.39 226.55 142.7 227.8 143.7 228.45 144.53 229 144.63 229.16 146.17 229.05 147.6 229.49 149.15 229 149.65 228.89 150.72 226.79 152.12 226.19 151.07 224.99 150.12 223.43 147.24 223.25 145.62 222.44 144.44 221.48 143.93 220.98 142.89 220.28 142.65 219.84 142.7"/>
        <polyline class="cls-4" points="235.24 103.85 235.79 104.27 235.89 104.77 235.35 105.51 234.69 107.06 234.44 108.48 234.54 111.56 235.24 112.46 235.94 112.77 236.33 113.55 237.06 114.34 237.06 115.67 236.33 117.41 235.45 119.05 235.08 120.48 234.25 121.98 233.44 122.57 233.26 122.21 231.89 122.95 230.79 123.76 229.99 125.04 229.88 126.28 229.26 127.64 228.25 128.23 228.45 129.47 229.05 130.9 229.81 132.13 230.53 132.87 230.04 133.56 230.14 135.01 230.79 136.2 230.95 137.34 233.19 139.08 233.99 139.18 235.14 138.73 234.9 138.18 235.08 136.85 235.5 137.08 236.8 135.99 238.33 136.2 239.04 135.7 240.16 135.99 241.15 136.94 241.85 138.41 242.06 139.73 242.76 140.32 243.67 139.51 243.49 137.98 244.32 138.27 244.76 138.58 246.14 138.92 248.3 139.82 248.67 140.46 247.39 140.65 246.19 141.56 246.45 142.65 247.49 143.39 248.35 143.63 247.91 144.72 248.12 145.17 248.87 145.17 249.05 145.62 249.86 145.77 250.46 146.36 250.46 148.88 249.76 149.65 248.67 148.74 248.22 147.65 249.26 146.91 248.67 146.77 246.84 146.86 245.31 145.77 244.22 145.46 243.67 143.89 242.76 142.7 241.15 141.93 240.32 141.25 240.06 140.7 238.7 139.51 237.17 139.08 237.35 140.79 238.86 143.89 238.86 144.36 238.05 144.29 237.17 142.7 235.79 141.7 233.81 139.82 232.51 139.18 231.49 138.92 229.81 139.08 229 140.46 227.8 141.15 226.45 141.25 225.7 140.46 224.63 140.22 223.54 139.42 222.73 139.91 222.21 138.68 222.03 137.25 222.44 136.2 223.54 135.16 224.34 134.11 224.29 133.18 223.38 132.54 221.9 132.44 221.74 134.47 221.38 135.11 220.18 133.87 219.4 132.44 218.39 132.37 217.58 130.16 217.19 128.16 215.58 123.62 215.13 121.23 215.24 120.73 216.48 121.12 217.84 122.43 219.64 121.98 219.4 117.86 219.64 115.74 220.28 113.79 220.28 111.37 220.07 109.72 220.28 107.94 220.83 104.87 221.63 103.54 222.65 102.44 223.54 102.63 225.28 102.63 227.15 103.04 230.4 104.77 232.14 104.87 233.26 104.49 233.5 103.04 234.59 102.94 235.24 103.85"/>
        <g>
          <polyline class="cls-9" points="232.25 130.54 232.3 129.99 233.19 130.25 233.34 132.97 232.61 133.13 232.25 130.54"/>
          <path class="cls-8" d="m232.29,133.6l-.42-3.01.1-1.11,1.6.47.19,3.32-1.47.33Zm.36-3.1v.08s.29,2.05.29,2.05l-.12-2.08-.17-.05Z"/>
        </g>
        <g>
          <polyline class="cls-9" points="232.61 154.5 233 154.38 234.36 154.69 236.25 155.92 236.59 156.76 237.5 156.92 239.95 157.02 240.24 157.52 241.59 157.16 242.11 157.26 242.24 158.9 241.69 160.49 240.49 161.14 239.3 162.57 238.16 163.37 237.4 163.71 236.15 163.9 234.36 164.52 233.26 165.78 232.8 164.21 232.8 162.47 233.26 160.64 233.6 156.83 233.44 156.02 232.61 155.29 232.61 154.5"/>
          <path class="cls-8" d="m233.09,166.57l-.69-2.36v-1.74l.48-1.93.32-3.69-.12-.62-.86-.77v-1.25l.76-.24,1.58.38,2,1.3.31.75.7.13,2.61.1.24.43,1.15-.3.9.17.16,2.02-.62,1.81-1.27.68-1.22,1.44-1.14.8-.92.4-1.25.19-1.63.57-1.49,1.72Zm.09-2.42l.25.84.7-.8,1.89-.65,1.27-.2.71-.31,1.03-.73,1.28-1.49,1.06-.57.47-1.37-.1-1.26-.14-.03-1.56.41-.33-.57-2.23-.09-1.17-.21-.38-.92-1.73-1.13-1.19-.27h-.02v.33l.8.71.19.99-.34,3.86-.48,1.9v1.58Z"/>
        </g>
        <g>
          <polyline class="cls-9" points="231.78 194.14 232.61 193.55 233.71 193.55 235.24 194.04 235.68 194.45 234.59 195.45 233.19 195.63 232.3 194.87 231.78 194.14"/>
          <path class="cls-8" d="m233.07,196.04l-1.02-.87-.81-1.12,1.25-.89,1.34.02,1.68.58.75.7-1.49,1.36-1.7.23Zm-.74-1.81l.3.42.69.58,1.11-.15.69-.63-.07-.06-1.4-.45h-.91l-.41.3Z"/>
        </g>
        <g>
          <polyline class="cls-9" points="224.55 199.85 224.55 199.35 224.81 198.85 225.8 198.61 228.45 199.25 227.8 200.25 226.45 199.66 225.36 199.94 224.55 199.85"/>
          <path class="cls-8" d="m227.95,200.74l-1.53-.67-1.03.27-1.22-.14.04-1.03.34-.66,1.25-.3,3.28.79-1.13,1.74Zm-1.46-1.5l1.17.52.17-.26-2.03-.49-.73.17-.13.32.39.04,1.15-.3Z"/>
        </g>
        <g>
          <polyline class="cls-9" points="215.73 206.44 215.5 206.13 215.94 205.34 216.48 204.96 217.47 204.46 218.54 204.7 218.85 205.3 216.59 206.03 215.73 206.44"/>
          <path class="cls-8" d="m215.61,206.93l-.57-.76.68-1.14.54-.38,1.16-.59,1.38.31.61,1.16-2.7.88-1.1.52Zm.63-1.31l-.12.22.31-.15,1.87-.61v-.03s-.77-.17-.77-.17l-.86.44-.42.3Z"/>
        </g>
        <polyline class="cls-1" points="5.93 119.98 6.58 118.1 7.03 115.81 7.94 113.6 7.94 110.82 7.24 106.65 6.58 105.61 6.48 104.58 5.57 102.94 3.44 99.82 2.87 98.33 2.4 100.06 .79 99.23 -.2 97.4 .24 96.25 1.93 96.9 1.67 96.16 .48 95.4 .97 94.61 .79 93.76 -5.22 90.95 -5.27 89.5 -6.58 89.21 -7.46 88.07 -7.72 88.45 -8.74 87.66 -9.38 86.33 -10.82 84.36 -10.71 81.84 -10.53 80.69 -9.72 80.13 -8.01 80.62 -8.27 76.55 -8.09 76.17 -7.46 75.77 -6.84 75.08 -5.48 75.44 -4.73 75.18 -3.93 74.34 -3.87 73.58 -4.1 73.51 -4.68 72.11 -4.83 70.04 -4.47 68.2 -2.83 68.3 -2.28 67.7 -1.76 65.02 -2.03 61.44 -.85 60.35 1.23 59.97 3.13 60.3 4.35 60.3 5.02 59.61 5.93 56.88 8.69 52.02 9.19 50.45 8.93 49.17 9.73 47.93 12.18 46.44 13.09 44.69 12.83 40.94 13.92 38.65 15.98 37.1 18.24 36.23 19.7 34.94 20.9 33.14 23.78 32.75 25.34 32.06 27.89 32.8 28.54 32.06 28.05 29.92 28.69 28.19 30.33 27.35 31.25 26.45 31.25 24.81 32.6 24.28 33.14 23.55 33.69 23.62 35.49 24.47 37.41 26.21 37.85 28.68 38.63 29.83 41 29.92 42.09 34.27 42.25 37.2 41.8 40.98 41.8 42.32 40.25 45.93 39 47.53 37.96 47.77 37.31 49.17 35.75 50.69 35.15 53.43 34.29 55.21 34.84 57.33 34.6 58.47 33.14 60.95 33.85 61.61 35.95 59.8 37.49 58.87 40.25 58.68 43.27 58.62 43.27 60.11 44.04 62.09 44.25 64.83 46.26 66.16 48.59 67.39 47.61 71.06 47.06 73.7 49.35 74.03 52.06 74.94 52.4 76.48 55.15 78.86 58.14 78.55 60.41 76.91 62.13 77.06 62.31 77.96 62.13 78.65 61.4 79.53 57.49 82.12 57.49 82.86 57.75 83.86 56.84 83.96 55.75 84.26 55.05 84.83 54.76 85.6 53.85 85.93 52.94 87.07 52.16 88.9 49.95 89.31 48.7 89.95 46.52 91.55 44.95 92.33 43.27 93.92 41.55 94.42 38.74 94.52 36.86 94.76 34.65 100.11 34.39 101.8 34.6 103.18 33.3 104.08 33.43 104.96 34.34 107.3 35.95 110.46 39.39 112.84 40.51 114.19 40.9 116.41 40.69 118.5 41 120.14 42.54 120.28 43.06 121.57 42.14 122.43 41.29 124.26 40.9 125.49 40.79 127.09 40.25 127.73 39 128.76 38.4 129.8 38.25 131.68 39.21 134.01 41.99 135.75 44.8 138.49 45.14 139.23 45.4 140.41 45.71 145.03 46.62 147.51 46.85 147.65 47.66 149.88 49.9 154.38 49.69 155.43 46.85 159.4 45.25 160.54 44.15 162.14 43.81 164.11 43.06 165.94 42.35 166.92 42.14 167.42 40.63 166.35 40.79 164.61 41.34 162.78 42.8 159.49 42.8 157.99 43.34 155.59 41.71 154.79 40.63 154.05 40.79 153.04 42.09 153.29 41.8 151.91 42.09 149.98 41.44 146.36 39.76 142.7 39.1 140.15 38.45 140.65 38.14 141.25 37.41 139.08 36.68 135.85 35.75 133.73 34.94 130.9 34.29 127.52 33.74 122.29 33.85 118.81 33.25 118.7 32.78 118.6 30.98 117.72 29.53 116.57 28.33 115.34 27.35 115.74 26.64 113.1 25.89 111.6 25.89 114.29 25.16 117.36 23.08 118.5 20.79 119.5 19.17 120.79 17.54 121.78 16.08 122.95 14.57 124.59 13.84 124 12.83 124.11 12.13 123.35 11.09 124.66 9.68 124 8.15 123.52 7.42 122.95 7.94 121.78 6.48 122.71 5.57 122.36 5.93 119.98"/>
        <polyline class="cls-1" points="89.46 165.21 88.63 165.04 88.22 164.61 87.41 164.21 84.86 163.95 83.69 164.52 82.2 164.44 82.2 162.97 82.96 162.06 82.68 160.73 81.76 160.23 81.06 160.54 80.33 161.73 78.95 161.97 77.71 158.5 77.71 158.11 78.22 158.57 78.17 157.95 76.87 156.52 76.87 156.26 77.16 155.43 77.08 154.29 76.17 152.22 75.16 150.48 73.1 148.84 72.01 145.86 71.62 144.34 72.01 141.89 72.97 141.25 73.83 139.82 74.87 139.32 77.08 136.58 77.96 135.7 79.21 135.25 83.32 135.51 85.77 135.94 88.37 135.61 92.53 135.44 94.02 136.75 95.58 136.11 96.72 137.25 99.53 137.73 101.07 138.32 102.44 137.98 102.55 135.94 104.79 134.78 106.53 134.18 107.88 134.25 109.05 135.35 110.22 135.35 111.68 134.78 113.4 133.52 113.84 132.78 113.58 137.82 113.94 139.91 115.03 141.93 114.83 148.64 114.49 150.39 113.5 151.52 112.23 151.22 110.69 152.45 109.71 152.95 108.48 152.95 105.7 154.05 105.54 155.43 102.78 155.67 101.33 156.07 100.88 157.99 101.17 159.09 101.28 160.33 100.33 160.73 99.2 160.95 97.47 162.06 95.94 162.57 94.82 162.21 93.91 162.21 93.63 163.47 92.92 164.21 91.83 164.71 90.12 165.04 89.46 165.21"/>
        <polyline class="cls-1" points="177.73 206.84 178.46 207.53 179.03 208.51 179.2 209.27 179.2 210.15 178.92 210.84 178.01 210.84 177.31 210.41 176.76 209.51 176.37 208.41 175.93 207.92 175.31 207.92 174.55 208.27 173.96 208.86 173.82 212.24 173.41 213.22 172.78 213.58 172.05 213.39 171.4 212.88 170.7 212.24 170.16 211.43 168.7 210.01 168.15 209.6 167.61 209.41 167.87 209.15 169.22 208.77 171.4 208.51 172.47 207.92 175.39 205.8 175.72 206.75 177.73 206.84"/>
        <polyline class="cls-4" points="228.63 48.67 229.7 49.17 230.35 49.74 231.11 49.74 231.55 49.95 231.99 50.6 231.89 51.14 231.45 52.24 231.34 53.07 231.55 54.17 231.18 55.5 229.91 58.05 229.36 61.54 228.74 64.23 227.65 66.7 226.11 69.23 225.1 70.37 224.5 71.7 223.48 75.81 222.86 75.44 222.28 73.51 221.3 71.91 219.79 70.97 218.33 68.9 217.58 65.25 217.39 62.59 217.68 61.21 218.88 59.07 224.55 51 227.1 49.6 227.75 48.95 228.63 48.67"/>
        <polyline class="cls-4" points="138.79 90.86 138.5 90.79 139.2 90.14 140.35 90.86 141.96 91.14 142.5 92.87 142.61 93.92 141.15 95.16 139.2 98.47 138.39 100.87 137.2 101.7 135.25 103.59 133.5 104.04 132.36 105.65 131.5 105.51 130.8 105.01 125.21 103.54 123.93 101.89 123.64 96.9 124.56 96.25 126.43 94.42 127.92 93.42 128.09 92.92 129.08 92.28 130.9 91.55 135.14 91.35 136.23 90.64 137.4 90.79 138.13 90.74 138.79 90.86"/>
        <g>
          <polyline class="cls-9" points="39.39 182.95 39 183.03 39 184.29 39.39 185.03 40.19 184.38 40.25 183.48 39.65 182.69 39.39 182.95"/>
          <path class="cls-8" d="m39.27,185.62l-.66-1.34v-1.58l.59-.11.48-.49.96,1.25-.07,1.22-1.3,1.05Zm.12-1.43l.13.24.3-.24.04-.59-.24-.31-.03.03-.2.04v.84Z"/>
        </g>
        <polyline class="cls-1" points="54.76 85.6 53.85 85.93 52.94 87.07 52.16 88.9 49.95 89.31 48.7 89.95 46.52 91.55 44.95 92.33 43.27 93.92 41.55 94.42 38.74 94.52 36.86 94.76 34.65 100.11 34.39 101.8 34.6 103.18 33.3 104.08 33.43 104.96 34.34 107.3 35.95 110.46 39.39 112.84 40.51 114.19 40.9 116.41 40.69 118.5 41 120.14 42.54 120.28 43.06 121.57 42.14 122.43 41.29 124.26 40.9 125.49 40.79 127.09 40.25 127.73 39 128.76 38.4 129.8 38.25 131.68 39.21 134.01 41.99 135.75 44.8 138.49 45.14 139.23 45.4 140.41 45.71 145.03 46.62 147.51 46.85 147.65 47.66 149.88 49.9 154.38 49.69 155.43 46.85 159.4 45.25 160.54 44.15 162.14 43.81 164.11 43.06 165.94 42.35 166.92 42.14 167.42 41.44 169.01 41.29 170.16 39.21 176.43 38.89 178.81 38.89 180.91 39.39 182.15 42.25 181.91 45.25 184.88 46.15 185.31 48.36 188.24 50.06 189.64 50.86 191.57 54.97 195.54 54.32 193.5 56.12 193.5 57.31 194.78 59.86 195.04 61.21 195.37 62.75 197.42 62.36 199.66 63.01 201.23 66.47 199.09 68.08 199.35 69.72 199.16 70.81 197.42 69.51 195.63 67.72 193.71 65.56 192.11 60.41 191.47 58.46 189.42 57.68 188.91 56.95 187.5 55.96 182.69 55.05 181.41 53.7 180.08 52.94 178.08 52.71 175.87 51.85 174.46 50.44 174.11 48.54 174.77 47.06 174.46 46.62 173.32 46.26 170.99 45.97 168.66 45.97 166.78 46.26 165.94 47.06 164.71 47.24 163.3 47.95 162.71 48.7 161.33 48.7 159.8 49.95 156.17 51.07 154.19 52.34 152.31 52.5 150.07 53.25 145.62 52.71 142.48 54.6 141.8 56.95 141.65 57.42 141.65 58.46 141.8 60.09 142.24 60.57 142.93 60.2 147.84 60.67 148.84 61.26 148.88 60.84 148.43 61.66 148.33 65.17 148.6 66.65 148.33 68.16 148.64 70.81 150.72 71.8 151.95 72.92 152.41 73.73 152.95 73.96 152.62 74.72 153.04 75.91 155.67 76.87 156.26 77.16 155.43 77.08 154.29 76.17 152.22 75.16 150.48 73.1 148.84 72.01 145.86 71.62 144.34 72.01 141.89 72.97 141.25 73.83 139.82 74.87 139.32 77.08 136.58 77.96 135.7 79.21 135.25 83.32 135.51 85.77 135.94 88.37 135.61 92.53 135.44 94.02 136.75 95.58 136.11 95.58 135.51 96.17 135.51 97.37 134.11 97.37 128.3 97.81 126.97 97.73 125.59 97.47 124.85 96.72 124 95.58 123.26 95.21 122.36 93.83 122.21 92.61 121.38 91.62 120.14 91.02 118.6 91.18 115.24 91.02 113.44 90.48 111.72 89.72 110.36 88.76 109.72 88.37 108.75 87.13 108.15 86.03 107.25 85.27 106.11 83.51 104.08 81.61 104.04 79.97 104.08 78.36 104.42 77.81 105.92 77.16 106.56 75.96 106.91 74.07 107.8 72.92 107.8 71.62 107.01 70.71 105.61 69.51 105.37 68.16 105.61 66.16 106.32 64.36 107.99 62.57 108.75 61.47 109.99 60.67 110.46 60.84 109.8 60.3 108.06 61.01 106.11 61.47 102.7 62.13 101.2 62.13 100.06 62.31 98.97 61.76 96.73 62.31 94.33 61.76 93.87 58.77 93.92 57.75 93.76 57.42 93.52 57.42 90.95 57.05 89.05 56.12 87.81 55.52 87.21 54.6 87.43 54.32 86.64 54.43 85.64 54.76 85.6"/>
        <polyline class="cls-1" points="70.16 71.7 72.01 73.94 74.45 76.55 75.96 77.91 76.77 79.19 76.28 80.93 76.54 82.03 78.77 84.15 81.66 84.69 84.68 84 86.94 84.1 88.48 85.6 89.28 86.83 89.46 87.81 90.74 88.67 91.28 89.9 92.07 90.74 91.94 91.88 89.67 94.02 88.81 94.07 87.13 93.76 86.03 94.02 85.46 94.76 85.02 95.99 85.12 96.9 86.11 97.23 87.28 98.09 90.19 99.47 94.22 102.08 94.82 104.04 98.18 106.82 98.72 108.15 101.28 110.82 102.18 111.03 104.63 112.7 105.43 114.57 105.88 116.27 105.8 116.48 105.98 116.57 106.53 118.41 107.88 118.41 109.88 119.74 111.03 120.88 111.78 123.35 113.68 127.09 113.94 128.16 113.84 132.78 113.4 133.52 111.68 134.78 110.22 135.35 109.05 135.35 107.88 134.25 106.53 134.18 104.79 134.78 102.55 135.94 102.44 137.98 101.07 138.32 99.53 137.73 96.72 137.25 95.58 136.11 95.58 135.51 96.17 135.51 97.37 134.11 97.37 128.3 97.81 126.97 97.73 125.59 97.47 124.85 96.72 124 95.58 123.26 95.21 122.36 93.83 122.21 92.61 121.38 91.62 120.14 91.02 118.6 91.18 115.24 91.02 113.44 90.48 111.72 89.72 110.36 88.76 109.72 88.37 108.75 87.13 108.15 86.03 107.25 85.27 106.11 83.51 104.08 81.61 104.04 79.97 104.08 78.36 104.42 77.81 105.92 77.16 106.56 75.96 106.91 74.07 107.8 72.92 107.8 71.62 107.01 70.71 105.61 69.51 105.37 68.16 105.61 66.16 106.32 64.36 107.99 62.57 108.75 61.47 109.99 60.67 110.46 60.84 109.8 60.3 108.06 61.01 106.11 61.47 102.7 62.13 101.2 62.13 100.06 62.31 98.97 61.76 96.73 62.31 94.33 61.76 93.87 58.77 93.92 57.75 93.76 57.42 93.52 57.42 90.95 57.05 89.05 56.12 87.81 55.52 87.21 54.6 87.43 54.32 86.64 54.43 85.64 54.76 85.6 55.05 84.83 55.75 84.26 56.84 83.96 57.75 83.86 57.49 82.86 57.49 82.12 61.4 79.53 62.13 78.65 62.31 77.96 63.17 81.53 66.16 80.88 66.81 80.48 67.01 78.46 66 76.22 65.72 73.84 65.92 72.25 67.17 71.1 70.16 71.37 70.16 71.7"/>
        <polygon class="cls-2" points="-50.72 27.35 -49.27 27.67 -48.72 27.67 -47.91 26.56 -46.71 26.32 -46.1 26.56 -46.05 26.42 -44.68 25.92 -43.58 25.92 -42.22 25.03 -41.52 24.87 -40.86 25.18 -40.55 25.68 -40.2 27.02 -40.2 27.81 -40.78 29.56 -40.7 30.61 -40.44 30.98 -39.95 31.26 -39.13 31.17 -39 30.47 -35.8 27.72 -34.31 25.47 -32.58 23.98 -30.82 23.29 -28.76 23.11 -27.82 23.33 -27.29 24.07 -27.21 24.43 -26.14 25.13 -23.73 25.37 -21.71 25.92 -20.95 26.01 -18.83 25.47 -18.39 25.68 -17.94 26.16 -15.98 27.21 -15.97 27.23 -13.54 26.47 -9.33 25.68 -7.41 24.43 -5.13 23.52 -3.66 22.42 -1.57 20.29 .71 19.69 3.64 17.34 4.53 15.88 5.84 15.04 7.36 14.35 8.02 14.44 9.11 15.14 10.37 15.28 13.3 15.19 15.4 14.59 17.57 13.3 19.33 12.88 21.06 14.54 20.69 15.54 21.06 16.94 22.87 17.44 22.76 19.43 22.32 21.53 25.09 21.53 26.53 22.13 28.65 22.13 30.17 22.68 30.83 24.36 32.19 23.83 32.74 23.09 33.29 23.17 35.1 24.03 37.04 25.78 37.48 28.27 38.27 29.42 40.65 29.51 41.75 33.9 41.91 36.85 41.46 40.65 41.46 41.99 39.89 45.64 38.63 47.24 37.59 47.48 36.93 48.89 35.36 50.43 34.76 53.18 33.9 54.98 34.44 57.11 34.21 58.26 32.74 60.75 33.45 61.42 35.57 59.6 37.11 58.67 39.89 58.47 42.93 58.4 42.93 59.91 43.71 61.9 43.93 64.66 45.94 66 48.3 67.24 47.31 70.93 46.75 73.59 49.06 73.93 51.78 74.84 52.12 76.4 54.9 78.79 57.91 78.48 60.19 76.83 61.92 76.97 62.1 77.88 62.97 81.47 65.98 80.83 66.63 80.42 66.84 78.38 65.82 76.13 65.54 73.74 65.75 72.13 67 70.98 70.01 71.24 70.01 71.58 71.01 72.08 71.01 71.58 72.03 70.48 72.58 69.64 73.05 69.4 73.5 69.73 75.51 70.1 76.61 70.98 77.53 71.15 79.7 69.9 80.7 69.64 81.59 70.33 83.63 69.81 84.18 70.74 85.62 70.1 86.91 68.99 88.19 69.4 89.16 69.14 91.39 68.06 92.82 67.15 94.29 65.64 95.42 65.5 97.67 66.14 99.58 67.49 101.78 68.4 103.85 68.89 106.68 68.99 107.44 70.24 106.63 72.39 107.23 74.48 108.44 76.13 111.97 77.98 112.63 78.67 114.28 78.98 117 78.89 118.02 79.54 119.28 79.08 120.12 78.58 120.59 79.99 120.59 79.08 121.95 78.79 122.61 77.64 123.21 77.57 124.31 77.98 127.24 78.72 127.43 79.39 128.16 80.06 129.71 79.99 131.17 79.08 132.17 78.67 132.77 79.73 131.72 82.67 131.61 83.13 131.91 84.11 134.23 88.3 135.81 89.21 138.17 88.25 138.27 86.62 137.72 85.57 136.54 83.97 138.27 80.33 139.63 80.73 141.83 80.13 143.22 79.54 143.56 79.08 144.92 79.22 146.97 78.98 148.59 78.58 150.16 77.23 151.71 76.97 152.13 77.33 153.52 77.38 154.53 76.83 156.13 76.64 158.41 75.68 159.07 75.89 159.51 75.48 159.51 74.34 159.33 73.64 159.45 72.59 160.32 70.14 160.72 71.05 161.79 71.79 163.1 73.23 163.55 73.33 164.1 73.09 164.2 72.68 164.04 71.65 164.04 70.14 164.3 68.49 164.75 69.35 165.96 69.73 167.47 70.84 167.92 71.49 167.73 71.79 167.92 72.49 169.75 72.23 170.51 71.99 169.75 71.15 169.75 70.93 169.96 70.84 170.2 70.69 171.38 70.41 171.95 70.93 172.04 71.39 172.21 71.7 172.76 70.93 172.87 70.84 172.87 69.4 174.13 68.99 174.13 69.59 174.57 70.38 175.59 70.33 176.43 69.23 177.79 68.4 178.97 68.8 179.05 69.49 179.89 69.81 180.89 69.59 180.99 68.99 181.59 68.4 182.43 68.76 183.71 68.99 185.42 68.15 187.93 67.34 189.29 66.5 189.74 65.64 190.55 64.9 191.1 63.91 192.23 62.5 193.33 62.17 193.93 62.41 195.42 61.35 195.95 61.35 196.5 61.66 196.65 60.51 197.49 59.91 197.86 61.02 198.3 59.36 199.06 59.36 201.13 57.52 201.68 56.22 201.13 55.48 201.03 55.12 202.23 54.17 203.39 54.43 205.95 54.07 206.76 53.33 207.03 51.98 208.12 51.24 208.94 49.18 209.88 48.99 210.46 49.33 211.06 48.58 210.69 47.57 211.35 46.83 212.27 46.93 212.97 47.24 213.29 46.83 212.97 45.73 213.11 44.89 213.52 44.75 213.91 44.34 214.33 43.38 214.52 42.64 214.46 41.9 215.38 39.75 215.28 39.19 214.02 36.89 215.17 36 216.45 35.86 216.64 37.76 216.9 37.99 217.89 37.11 218.26 35.17 219.75 33.75 220.57 33.25 221.48 32.08 222.08 30.66 222.19 29.75 222.59 28.77 223.11 27.91 223.76 27.33 224.49 26.28 225.47 25.18 226.56 23.62 227.38 23.09 228.14 24.03 228.74 24.34 229.79 22.38 229.68 19.93 230.31 19.33 230.65 17.44 229.84 16 229.94 15.59 231.7 15.19 232.51 14.7 232.75 15.19 232.95 13.84 232.85 11.95 230.49 12.96 229.94 12.88 231.3 12.19 233.51 10.15 234.37 9.51 233.72 9.29 232.51 9.29 231.41 8.86 230.6 8.45 230.13 7.62 228.74 6.56 227.51 6.2 224.39 7.45 222.64 6.71 220.83 6.2 219.05 6.39 220.67 5.6 222.27 5.37 224.65 5.37 226.41 4.36 226.96 3.61 228.14 2.97 229.79 2.46 231.3 1.03 233.51 .96 233.61 .31 233.27 -.27 -50.72 -.27 -50.72 27.35"/>
        <polygon class="cls-1" points="130.25 229.23 129.24 230.82 128.15 231.92 127.54 233.15 127.23 234.06 134.94 234.06 131.34 229.28 131.34 228.64 130.25 229.23"/>
        <g>
          <polygon class="cls-9" points="225.91 233.85 224.34 233.99 224.21 234.06 228.66 234.06 228.63 233.99 225.91 233.85"/>
          <polygon class="cls-8" points="228.66 234.45 222.68 234.45 224.31 233.6 225.87 233.46 228.92 233.61 229.17 234.38 228.66 234.45"/>
        </g>
        <polygon class="cls-1" points="209.72 203.56 206.52 202.73 204.18 201.18 203.17 200.73 202.33 200.59 201.47 201.32 200.75 201.32 200.38 200.99 201.03 200.49 201.14 199.75 200.65 199.09 199.84 199.09 199.03 199.49 198.48 199.44 197.96 199.66 197.68 199.49 197.57 197.71 198.05 197.11 197.68 195.54 196.22 194.4 195.57 194.78 194.58 194.23 193.88 192.31 193.52 191.88 192.42 191.88 191.88 193 190.26 194.78 190.26 194.4 190.52 193.64 190.52 192.11 190.42 191.8 190.08 191.71 189.43 192.54 189.17 193.5 188.63 194.4 184.88 198.21 184.78 198.94 183.97 200.49 182.07 202.56 180.56 202.56 179.83 202.82 179.2 203.75 179.57 204.51 180.38 204.94 179.36 206.29 178.66 206.75 177.73 206.84 178.46 207.53 179.03 208.51 179.2 209.27 179.2 210.15 178.92 210.84 178.01 210.84 177.31 210.41 176.76 209.51 176.37 208.41 175.93 207.92 175.31 207.92 174.55 208.27 173.96 208.86 173.82 212.24 173.41 213.22 172.78 213.58 172.05 213.39 171.4 212.88 170.7 212.24 170.16 211.43 168.7 210.01 168.15 209.6 167.61 209.41 167.4 209.6 167.06 211.24 165.97 212.84 163.55 214.72 162.4 216.05 161.96 216.86 159.85 219.16 158.27 220.67 157.41 221.05 155.46 221.16 154.16 221.4 152.65 221.4 151.84 221.59 151.9 221.66 151.3 221.9 148.85 222.09 148.2 222.5 147.11 223.83 146.85 224.42 146.85 226.38 146.67 226.11 145.65 225.92 144.95 226.38 145.28 227.8 144.95 228.54 144.69 229.87 144.19 230.78 143.96 231.75 141.39 231.52 140.14 231.16 139.15 230.61 138.39 230.37 136.5 230.61 135.61 230.47 133.4 229.73 132.85 229.14 132.44 227.9 132.05 228.04 131.63 228.4 131.34 228.64 131.34 229.28 134.94 234.06 151.45 234.06 152 233.44 153.19 232.32 153.92 232.16 157.96 232.32 158.71 232.61 158.86 233.59 159.6 233.66 160.99 234.06 165.36 234.06 165.86 233.85 167.4 233.44 169.06 233.15 170.96 232.61 172.05 231.92 172.47 230.92 173.67 229.37 174.92 226.9 175.72 223.23 179.73 219.12 180.46 217.6 180.82 214.72 181.71 212.34 182.72 211.15 185.43 210.91 193.13 211.1 194.32 211.84 196.43 212.38 197.24 212.48 197.68 211.98 197.96 211.34 198.14 211.24 199.03 211.84 199.79 212.08 200.75 212.15 203.27 211.24 205.27 210.91 205.09 210.41 204.28 209.91 203.63 209.74 202.73 209.01 202.33 208.18 202.52 207.27 203.63 206.75 204.78 207.34 206.42 207.08 207.98 206.54 208.94 205.94 210.43 205.44 210.79 204.8 210.63 204.16 209.72 203.56"/>
      </g>
      <path class="cls-3" d="m230.14,145.16c-15.44,62.38-78.51,100.43-140.9,84.99C26.86,214.72-11.18,151.64,4.26,89.25,19.68,26.87,82.76-11.18,145.15,4.26c62.39,15.44,100.43,78.52,84.99,140.9Z"/>
      <g>
        <polyline class="cls-7" points="104.82 171.36 106.3 171.85 106.85 170.67 106.04 169.29 106.48 168.54 107.39 168.7 107.57 167.97 108.11 168.04 107.93 166.88 108.42 166.47 108.92 165.57 110.96 165.1 111.95 165.53 113.07 165.57 116.67 163.6 118.74 163.06 119.93 161.54 124.52 159.6 125.53 158.67 126.85 158.58 127.21 157.77 127.43 156.54 128.34 155.85 128.41 155.02 127.97 154.52 128.25 154.02 128.57 154.12 128.57 153.48 127.97 150.33 128.15 149.83 128.67 150.23 128.57 148.69 129.11 147.96 129.76 148.15 129.76 148.6 129.66 147.15 129.5 145.92 128.95 145.58 128.77 143.45 128.88 141.77 128.57 140.77 128.57 139.49 128.34 138.95 127.76 135.1 125.33 128.04 121.98 124.98 121.13 123.66 120.84 121.73 120.73 122.26 119.83 122.33 119.72 121.67 118.95 120.53 116.41 120.1 115.3 118.65 114.05 117.56 112.7 116.63 111.61 115.31 110.96 114.82 110.27 113.77 108.92 112.85 107.62 111.4 105.93 110.12 105.68 108.39 104.82 106.42 103.14 105.47 100.16 102.7 99.35 100.99 99.61 99.19 100.16 97.86 100.44 96.13 102.15 92.48 106.43 89.16 106.92 88.55 107.46 86.6 108.53 85.68 109.18 84.91 111.95 83.85 113.43 82.81 113.66 81.57 116.49 80.13 117.76 80.58 118.2 80.25 118.3 79.8 117.29 79.16 114.59 79.25 112.96 78.94 112.31 78.26 108.81 76.43 107.62 74.79 107.02 72.73 107.83 70.6 107.08 69.36 104.28 69.27 102.23 68.77 100.05 67.87 98.16 66.54 95.93 65.9 94.82 66.04 93.36 67.54 91.94 68.44 89.74 69.51 88.78 69.77 87.51 69.36 86.24 70.46 84.81 71.09 84.27 70.17 82.25 70.69 81.36 70 80.38 70.27 78.23 71.5 77.32 71.33 76.23 70.46 74.24 70.1 73.79 69.77 73.33 70 72.79 70.84 71.77 71.93 71.77 72.42 70.79 71.93 72.63 74.15 75.06 76.76 76.57 78.11 77.37 79.39 76.88 81.12 77.14 82.21 79.37 84.33 82.25 84.87 85.25 84.18 87.51 84.27 89.04 85.77 89.84 87 90.02 87.98 91.29 88.83 91.84 90.06 92.61 90.89 92.48 92.03 90.23 94.16 89.37 94.21 87.69 93.9 86.6 94.16 86.03 94.9 85.59 96.13 85.69 97.03 86.68 97.36 87.84 98.22 90.75 99.59 94.76 102.2 95.36 104.14 98.7 106.92 99.25 108.25 101.79 110.9 102.69 111.11 105.13 112.77 105.93 114.65 106.38 116.33 106.3 116.54 106.48 116.63 107.02 118.46 108.37 118.46 110.37 119.79 111.51 120.93 112.26 123.39 114.15 127.12 114.41 128.19 114.31 132.78 114.05 137.81 114.41 139.9 115.5 141.91 115.3 148.6 114.95 150.33 113.97 151.47 112.7 151.16 111.17 152.39 110.19 152.89 108.97 152.89 106.2 153.98 106.04 155.35 103.29 155.59 101.84 155.99 101.4 157.91 101.69 159.01 101.79 160.24 100.85 160.64 99.72 160.85 98 161.97 96.48 162.47 95.36 162.11 94.45 162.11 94.17 163.37 93.47 164.1 92.38 164.6 90.67 164.93 90.02 165.1 91.09 166.66 93.81 167.56 94.76 168.39 94.17 169.63 93.08 170.93 92.82 173.18 92.92 174.72 93.26 176.36 94.01 178.02 93.26 178.61 93.52 179.25 94.92 179.2 97.02 177.78 98.55 175.91 99.9 174.63 103.06 173.49 103.6 172.9 103.5 171.9 104.82 171.36"/>
        <path class="cls-8" d="m93.26,179.65l-.47-1.16.74-.59-.63-1.38-.36-1.72-.11-1.59.27-2.44,1.17-1.39.42-.88-.68-.59-2.77-.92-1.45-2.13,1.19-.31,1.73-.34.93-.44.58-.61.33-1.45,1.33.02,1,.32,1.36-.45,1.81-1.14,1.13-.21.6-.27-.08-.96-.3-1.12.51-2.24,1.67-.46,2.5-.22.15-1.29,3.13-1.2h1.13l.89-.46,1.62-1.31,1.23.3.76-.88.32-1.63.19-6.52-1.08-2.04-.36-2.08.26-5.12.1-4.53-.25-1.02-1.86-3.64-.74-2.43-1.07-1.07-1.84-1.22h-1.52l-.61-1.96-.31-.16.15-.42-.41-1.57-.74-1.71-2.28-1.56-.94-.22-2.7-2.86-.51-1.24-3.36-2.78-.59-1.92-3.9-2.53-2.86-1.35-1.18-.86-1.16-.39-.14-1.23.53-1.43.65-.84,1.31-.31,1.76.33.62-.04,2.05-1.94.09-.82-.73-.81-.5-1.13-1.31-.88-.2-1.06-.76-1.17-1.37-1.33-2.06-.08-3.04.69-3.07-.58-2.39-2.27-.31-1.3.47-1.67-.68-1.08-1.47-1.32-2.46-2.63-3.05-3.68,2.08,1.06v-.02l1.12-1.2.56-.87.77-.39.57.42,2.07.42,1.02.81.67.12,2.12-1.2,1.17-.31.88.69,2.12-.55.52.87,1.06-.47,1.39-1.2,1.37.43.85-.23,2.14-1.04,1.38-.88,1.48-1.54,1.33-.16,2.42.71,1.89,1.33,2.1.86,1.99.48,2.93.09.96,1.57-.82,2.19.54,1.87,1.1,1.51,3.52,1.86.56.59,1.51.29,2.73-.1,1.34.85-.19.86-.72.55-1.31-.47-2.51,1.28-.23,1.2-1.6,1.13-2.76,1.07-.59.69-1.02.89-.58,1.97-.49.62-4.27,3.33-1.65,3.51-.27,1.67-.57,1.42-.22,1.59.73,1.53,2.92,2.72,1.72.96.93,2.19.23,1.57,1.56,1.18,1.35,1.5,1.38.97.66,1,.6.46,1.12,1.34,1.3.9,1.28,1.12,1.07,1.38,2.55.43.93,1.43.05.31.25-.02.48-2.41.6,4.04.78,1.22,3.41,3.18,2.43,7.06.59,3.91.23.6v1.22l.32,1.01-.11,1.75.16,1.88.54.33.29,2.46v.52s-.23-.07-.23-.07l-.55.02v-.19s-.11-.03-.11-.03l-.3.4.15,2.27-.72-.56.55,2.89v1.25s-.48-.16-.48-.16l.35.39-.1,1.17-.93.7-.21,1.18-.46,1.02-1.42.1-1.02.9-4.5,1.91-1.21,1.54-2.19.58-3.61,1.98-1.36-.08-.87-.38-1.75.4-.5.86-.32.27.22,1.46-.71-.1-.19.75-1-.18-.19.32.79,1.36-.78,1.68-1.67-.56-.92.38.09.88-.81.82-3.09,1.11-1.29,1.23-1.58,1.91-2.19,1.49-1.78.06Zm.47-.91l.05.12,1.02-.03,1.96-1.33,1.49-1.83,1.52-1.4,3.08-1.11.36-.39-.11-1.11,1.72-.71,1.29.43.31-.68-.82-1.4.69-1.19.82.15.18-.72.37.05-.13-.86.6-.5.55-.99,2.34-.54,1.04.45.94.04,3.51-1.91,2.03-.55,1.27-1.53,4.53-1.92,1.06-.97,1.22-.08.25-.55.23-1.34.9-.68.04-.49-.52-.58.58-1.01.1.03v-.12l-.61-3.18.41-1.1.25.2-.05-.81.79-1.07.34.1-.03-.43-.13-1.02-.55-.34-.2-2.33.1-1.67-.31-1.05v-1.2l-.2-.47-.6-3.94-2.38-6.9-3.34-3.07-.91-1.48-.16-1.06-1.08.09-.15-.93-.63-.93-2.53-.43-1.21-1.56-1.19-1.04-1.39-.98-1.09-1.32-.67-.53-.66-.99-1.28-.88-1.37-1.51-1.76-1.32-.27-1.84-.78-1.8-1.57-.89-3.14-2.95-.86-1.81.28-1.92.57-1.42.29-1.75,1.82-3.79,4.28-3.32.38-.49.55-1.98,1.15-1,.76-.83,2.77-1.07,1.26-.9.24-1.27,3.14-1.61,1.23.44.17-.17-.68-.43-2.58.09-1.84-.34-.69-.73-3.58-1.91-1.25-1.75-.63-2.19.78-2.08-.54-.89-2.59-.09-2.12-.5-2.24-.92-1.91-1.34-2.09-.6-.9.11-1.36,1.4-1.49.96-2.24,1.09-1.13.31-1.17-.37-1.2,1.01-1.74.78-.57-.97-1.92.5-.88-.69-.75.2-2.23,1.28-1.22-.27-1.02-.81-2.05-.41-.25-.19-.16.08-.49.74-.95,1.03v.9l.77.93,2.42,2.59,1.55,1.41.89,1.42-.51,1.8.21.88,2.06,1.96,2.69.51,2.98-.68,2.45.1,1.64,1.6.91,1.44.15.81,1.23.82.56,1.28.86.91-.17,1.46-2.46,2.33-1,.06-1.69-.3-.88.21-.45.58-.39,1.09.06.57.85.31,1.17.85,2.84,1.34,4.18,2.71.6,1.97,3.37,2.85.51,1.26,2.41,2.52.92.24,2.53,1.73.85,1.97.49,1.86h0s.02.01.02.01l.51,1.71h1.18l2.09,1.39,1.3,1.35.75,2.47,1.87,3.66.3,1.2-.1,4.65-.26,5.04.35,1.93,1.11,2.05-.21,6.79-.37,1.9-1.2,1.39-1.32-.32-1.38,1.11-1.22.59h-1.15l-2.49.97-.17,1.46-3.06.27-1.16.33-.37,1.6.26,1,.14,1.58-1.19.52-1.14.22-1.74,1.12-1.65.54-1.18-.38h-.53l-.24,1.06-.9.9-1.09.5-1.89.38.68,1,2.73.93,1.18,1.02-.72,1.5-1.07,1.29-.24,2.14.1,1.47.33,1.59.85,1.85-.76.61Z"/>
      </g>
    </g>
  </g>
</svg>